<svg version="1.1" id="Layer_1" xmlns="http://www.w3.org/2000/svg" xmlns:xlink="http://www.w3.org/1999/xlink" x="0px" y="0px"
	 width="100%" viewBox="0 0 560 432" enable-background="new 0 0 560 432" xml:space="preserve">
<path fill="#000000" opacity="1.000000" stroke="none" 
	d="
M300.732300,125.167862 
	C308.262604,135.549240 319.290283,137.479340 330.516052,138.628433 
	C340.877258,139.689011 351.111969,137.962463 361.315735,136.344955 
	C367.542511,135.357864 373.650787,136.135696 379.584503,137.940125 
	C391.906677,141.687256 398.829437,153.113724 397.785034,166.737366 
	C396.838898,179.079773 392.740356,190.463440 387.895416,201.633743 
	C385.984375,206.039688 385.815430,210.130508 387.412445,214.659195 
	C394.442047,234.592880 401.346893,254.571320 408.151886,274.582855 
	C409.626892,278.920227 411.834167,280.313019 416.378326,278.823395 
	C431.354675,273.913971 446.717529,271.458099 462.546814,271.633820 
	C497.096832,272.017395 516.360535,290.408875 517.993774,324.919434 
	C518.365967,332.783295 517.617188,340.574158 515.938843,348.234283 
	C515.159607,351.790833 515.161865,355.088837 516.377502,358.511108 
	C518.683044,365.001404 517.887878,371.318329 514.786133,377.360260 
	C511.569885,383.625214 506.780426,387.184204 499.322693,387.171600 
	C440.178650,387.071594 381.034393,387.082703 321.890259,387.142273 
	C316.197144,387.148010 312.152374,385.103180 309.117126,380.134033 
	C285.417267,341.333679 261.591309,302.610291 237.792816,263.870178 
	C218.441147,232.368774 199.066040,200.881760 179.718231,169.377960 
	C174.488678,160.862762 169.268600,152.340897 164.142242,143.763458 
	C160.584122,137.810013 160.904678,136.245224 166.835205,132.441086 
	C189.543289,117.875008 212.317261,103.411697 235.052658,88.888100 
	C248.945358,80.013306 262.770599,71.032074 276.712036,62.234787 
	C282.190430,58.777832 287.697205,55.251228 294.501801,54.826160 
	C304.016418,54.231804 311.224609,58.532581 315.239563,67.349045 
	C318.788910,75.143196 317.237701,83.289688 310.806091,89.821777 
	C308.472839,92.191490 305.754425,94.187050 303.465881,96.594849 
	C295.285126,105.201897 294.468872,113.534134 300.732300,125.167862 
M272.067871,243.457108 
	C293.207947,276.780426 314.374420,310.087036 335.448578,343.451996 
	C337.642761,346.925873 339.955292,349.141724 344.524536,349.084930 
	C363.012512,348.854919 381.504883,348.985168 399.995422,348.926788 
	C401.732361,348.921295 403.684753,349.454651 405.309235,347.611176 
	C404.942200,346.285217 404.685455,344.815002 404.137482,343.462799 
	C399.165741,331.194824 397.166840,318.509155 398.705475,305.325500 
	C399.379761,299.547913 400.378937,293.799377 400.827911,288.006439 
	C401.472076,279.696014 398.238647,276.373108 389.897797,276.234741 
	C384.736786,276.149109 379.549805,276.399719 374.420746,275.959991 
	C369.134491,275.506805 366.659058,272.576874 366.696106,267.927155 
	C366.736084,262.907440 369.746124,260.746185 374.268799,260.406097 
	C378.744629,260.069519 383.245911,260.036926 387.737579,259.956482 
	C391.470123,259.889648 392.472839,258.230713 391.079895,254.820984 
	C389.077972,249.920639 385.296234,247.364944 379.944824,247.195267 
	C373.635193,246.995193 367.259186,247.935730 361.027435,246.384521 
	C356.009369,245.135406 353.809479,241.491043 354.996460,236.615646 
	C356.187134,231.725128 360.135315,230.847427 364.281586,230.716888 
	C369.848877,230.541595 375.425842,230.673416 381.056885,230.673416 
	C379.875153,218.953537 377.952393,217.226288 367.409363,217.374374 
	C362.579773,217.442230 357.747131,217.416397 352.917603,217.334534 
	C346.572662,217.226990 343.706818,214.717194 343.702423,209.414444 
	C343.698090,204.191879 346.573608,201.800491 353.124603,201.732254 
	C359.454102,201.666321 365.785248,201.647980 372.114471,201.716324 
	C374.860168,201.745956 376.906250,201.013214 378.135468,198.296417 
	C382.615936,188.393585 386.304047,178.255508 387.568390,167.386902 
	C388.874542,156.158936 383.274231,147.933655 373.055969,146.525558 
	C368.126617,145.846252 363.083679,145.811890 358.132812,146.827820 
	C342.544495,150.026566 327.091675,150.003372 311.769196,145.195099 
	C290.378601,138.482620 275.500397,111.837502 295.423065,90.425621 
	C297.700867,87.977539 300.131104,85.739082 302.605133,83.508003 
	C307.038116,79.510376 307.875275,75.086838 305.315338,70.553146 
	C302.406769,65.402000 298.037506,63.688133 292.170685,65.561897 
	C289.309845,66.475601 286.683411,67.912666 284.148682,69.559364 
	C277.167023,74.094978 270.089600,78.483170 263.104034,83.012939 
	C249.664581,91.727707 249.825211,88.411392 252.747818,105.845421 
	C257.521210,134.319855 255.952301,161.956696 241.249054,187.698578 
	C239.364487,190.998032 240.356476,193.651779 242.174301,196.493561 
	C252.044006,211.922699 261.846527,227.394821 272.067871,243.457108 
M450.499908,376.576172 
	C451.832977,376.576752 453.166016,376.578613 454.499084,376.577728 
	C468.331940,376.568359 482.166382,376.679413 495.997009,376.499329 
	C503.215759,376.405334 506.465424,372.864227 506.425873,365.938171 
	C506.398743,361.190582 504.741943,360.250183 496.514709,360.250305 
	C445.349670,360.250916 394.184479,360.185364 343.019775,360.315094 
	C335.980286,360.332916 331.136810,357.806671 327.344391,351.782196 
	C293.174042,297.501221 258.856720,243.312683 224.545456,189.120468 
	C213.582611,171.805374 202.596115,154.503830 191.433502,137.317505 
	C188.031204,132.079208 186.077118,132.430984 178.910019,137.116455 
	C174.467682,140.020630 175.797195,142.680450 177.972641,146.209351 
	C205.334991,190.595062 232.598312,235.041824 259.879913,279.477295 
	C278.269165,309.429108 296.686310,339.363892 314.991943,369.366730 
	C318.056854,374.390076 321.878052,376.930115 328.043152,376.610413 
	C338.183472,376.084564 348.358490,376.071930 358.518097,376.102112 
	C388.845581,376.192261 419.172638,376.408234 450.499908,376.576172 
M447.002411,282.444427 
	C438.963409,283.738800 431.042938,285.625000 423.068756,287.216614 
	C414.106812,289.005371 409.815765,293.360535 409.411041,302.869568 
	C408.830383,316.512604 409.201263,329.765686 415.230591,342.363953 
	C417.425232,346.949677 420.631073,349.143219 425.824188,348.956970 
	C433.138031,348.694580 440.466797,348.825867 447.789185,348.828796 
	C464.597565,348.835510 481.406342,348.810028 498.214081,348.924164 
	C502.853882,348.955658 505.597107,347.748474 506.196411,342.399048 
	C507.054321,334.741302 507.187103,327.094727 506.670441,319.486908 
	C505.297302,299.268219 493.668762,286.107635 474.255035,282.628754 
	C465.535278,281.066223 456.700775,281.619293 447.002411,282.444427 
M224.377533,107.932571 
	C216.825531,112.818771 209.373764,117.871101 201.675705,122.515182 
	C198.258804,124.576523 197.927475,126.408638 200.017807,129.666855 
	C210.361481,145.789566 220.538986,162.018845 230.797012,178.196640 
	C231.290497,178.974930 231.593155,180.153595 233.616638,179.707886 
	C246.902832,153.792740 245.645493,126.517799 240.370728,97.778824 
	C234.521225,101.501762 229.761887,104.530853 224.377533,107.932571 
z"/>
<path fill="#000000" opacity="1.000000" stroke="none" 
	d="
M243.180603,304.683990 
	C242.362350,309.470947 238.867279,309.871033 235.516235,309.976685 
	C230.026535,310.149811 224.525665,309.938141 219.029556,309.943054 
	C171.887161,309.985077 124.744781,310.044617 77.602371,310.083160 
	C71.508980,310.088165 69.114029,308.261047 68.959946,303.608276 
	C68.836601,299.883301 70.493011,297.547913 74.307770,297.066223 
	C75.623291,296.900146 76.967178,296.920593 78.298119,296.920380 
	C129.771820,296.912384 181.245529,296.911499 232.719223,296.912476 
	C233.885117,296.912506 235.053131,296.906403 236.216537,296.969574 
	C241.859573,297.275909 243.000870,298.474609 243.180603,304.683990 
z"/>
<path fill="#000000" opacity="1.000000" stroke="none" 
	d="
M66.000084,254.764313 
	C110.982468,254.759003 155.464844,254.752029 199.947220,254.750214 
	C206.784775,254.749939 209.182953,256.390137 209.076355,261.096863 
	C208.993912,264.736938 207.434540,267.166595 203.428177,267.286804 
	C202.429260,267.316772 201.429367,267.325531 200.429932,267.325531 
	C147.950668,267.325226 95.471405,267.324127 42.992146,267.317780 
	C39.994080,267.317413 36.863514,267.651978 35.432495,263.986023 
	C33.493397,259.018463 36.096317,254.864822 41.510273,254.777145 
	C49.504848,254.647690 57.503284,254.756790 66.000084,254.764313 
z"/>
<path fill="#000000" opacity="1.000000" stroke="none" 
	d="
M262.726196,339.607788 
	C269.222961,340.192719 271.317841,342.577026 270.446045,347.674927 
	C269.950714,350.571472 268.381409,352.119324 265.447388,352.251129 
	C264.449341,352.295959 263.448975,352.302307 262.449646,352.302429 
	C210.136353,352.307892 157.823059,352.316986 105.509773,352.306091 
	C98.959915,352.304749 96.777534,350.509155 96.828674,345.479187 
	C96.863060,342.096985 98.543228,340.148773 101.830330,339.729675 
	C103.637108,339.499298 105.488617,339.586792 107.319962,339.586853 
	C158.966797,339.588135 210.613632,339.596527 262.726196,339.607788 
z"/>
</svg>